<svg width="48" height="47" viewBox="0 0 48 47" fill="none" xmlns="http://www.w3.org/2000/svg">
<path d="M34.9115 32.6199L26.6023 40.9291C26.2389 41.2928 25.8074 41.5814 25.3324 41.7783C24.8574 41.9751 24.3483 42.0765 23.8342 42.0765C23.32 42.0765 22.8109 41.9751 22.3359 41.7783C21.8609 41.5814 21.4294 41.2928 21.0661 40.9291L12.7549 32.6199C10.5639 30.4288 9.07192 27.6373 8.46748 24.5983C7.86305 21.5593 8.17335 18.4093 9.35914 15.5466C10.5449 12.6839 12.553 10.2372 15.1293 8.51574C17.7057 6.7943 20.7346 5.87549 23.8332 5.87549C26.9317 5.87549 29.9607 6.7943 32.537 8.51574C35.1134 10.2372 37.1214 12.6839 38.3072 15.5466C39.493 18.4093 39.8033 21.5593 39.1989 24.5983C38.5944 27.6373 37.1024 30.4288 34.9115 32.6199V32.6199Z" stroke="#0A5F6B" stroke-width="2" stroke-linecap="round" stroke-linejoin="round"/>
<path d="M27.9875 25.6958C29.0893 24.594 29.7083 23.0996 29.7083 21.5415C29.7083 19.9834 29.0893 18.489 27.9875 17.3873C26.8857 16.2855 25.3914 15.6665 23.8333 15.6665C22.2751 15.6665 20.7808 16.2855 19.679 17.3873C18.5772 18.489 17.9583 19.9834 17.9583 21.5415C17.9583 23.0996 18.5772 24.594 19.679 25.6958C20.7808 26.7975 22.2751 27.4165 23.8333 27.4165C25.3914 27.4165 26.8857 26.7975 27.9875 25.6958Z" stroke="#0A5F6B" stroke-width="2" stroke-linecap="round" stroke-linejoin="round"/>
</svg>
