<svg width="47" height="47" viewBox="0 0 47 47" fill="none" xmlns="http://www.w3.org/2000/svg">
<path d="M5.875 15.6665L21.3263 25.9673C21.9699 26.3968 22.7263 26.6259 23.5 26.6259C24.2737 26.6259 25.0301 26.3968 25.6737 25.9673L41.125 15.6665M9.79167 37.2082H37.2083C38.2471 37.2082 39.2433 36.7955 39.9778 36.061C40.7124 35.3265 41.125 34.3303 41.125 33.2915V13.7082C41.125 12.6694 40.7124 11.6732 39.9778 10.9387C39.2433 10.2042 38.2471 9.7915 37.2083 9.7915H9.79167C8.7529 9.7915 7.75668 10.2042 7.02216 10.9387C6.28765 11.6732 5.875 12.6694 5.875 13.7082V33.2915C5.875 34.3303 6.28765 35.3265 7.02216 36.061C7.75668 36.7955 8.7529 37.2082 9.79167 37.2082Z" stroke="#0A5F6B" stroke-width="2" stroke-linecap="round" stroke-linejoin="round"/>
</svg>
