<svg width="48" height="47" viewBox="0 0 48 47" fill="none" xmlns="http://www.w3.org/2000/svg">
<path d="M7.68891 7.02216C6.9544 7.75668 6.54175 8.7529 6.54175 9.79167V11.75C6.54175 27.9728 19.6939 41.125 35.9167 41.125H37.8751C38.9138 41.125 39.9101 40.7124 40.6446 39.9778C41.3791 39.2433 41.7917 38.2471 41.7917 37.2083V30.787C41.7918 30.3758 41.6625 29.975 41.4221 29.6414C41.1817 29.3079 40.8424 29.0584 40.4522 28.9285L31.6535 25.9949C31.2063 25.8463 30.7205 25.8639 30.2853 26.0444C29.85 26.225 29.4945 26.5565 29.2839 26.978L27.071 31.398C22.2759 29.2314 18.4353 25.3908 16.2688 20.5958L20.6887 18.3829C21.1103 18.1723 21.4417 17.8167 21.6223 17.3815C21.8029 16.9462 21.8205 16.4605 21.6718 16.0133L18.7382 7.2145C18.6084 6.82471 18.3593 6.48562 18.0261 6.24522C17.6929 6.00483 17.2926 5.87531 16.8817 5.875H10.4584C9.41965 5.875 8.42343 6.28765 7.68891 7.02216Z" stroke="#0A5F6B" stroke-width="2" stroke-linecap="round" stroke-linejoin="round"/>
</svg>
