<svg width="565" height="502" viewBox="0 0 565 502" fill="none" xmlns="http://www.w3.org/2000/svg">
<path d="M264.827 404.044H182.573C170.385 455.461 130.636 464.643 107.668 465.561C103.075 465.745 100.87 459.868 104.483 456.991C129.901 437.281 120.285 404.044 120.285 404.044H82.0672C41.8894 404.044 9 371.173 9 331.019V257.994C9 217.839 41.8894 184.969 82.0672 184.969H264.766C304.944 184.969 337.833 217.839 337.833 257.994V331.019C337.833 371.173 304.944 404.044 264.766 404.044H264.827Z" fill="url(#paint0_linear_416_2551)"/>
<path d="M485.2 320.007H423.747C414.624 358.459 384.912 365.364 367.743 365.997C364.322 366.124 362.675 361.69 365.399 359.599C384.405 344.839 377.246 320.007 377.246 320.007H348.674C318.644 320.007 294 295.428 294 265.338V210.669C294 180.642 318.581 156 348.674 156H485.326C515.356 156 540 180.579 540 210.669V265.338C540 295.365 515.419 320.007 485.326 320.007H485.2Z" fill="url(#paint1_linear_416_2551)"/>
<path d="M279.264 190.367H207.85C197.255 234.99 162.773 243.009 142.745 243.804C138.764 243.927 136.804 238.846 139.989 236.398C162.038 219.259 153.708 190.428 153.708 190.428H120.513C85.6022 190.428 57 161.904 57 126.952V63.476C57 28.5856 85.5409 0 120.513 0H279.264C314.175 0 342.777 28.5244 342.777 63.476V126.952C342.777 161.843 314.236 190.428 279.264 190.428V190.367Z" fill="url(#paint2_linear_416_2551)"/>
<path d="M149.176 93.041C149.176 81.4721 139.805 72.168 128.291 72.168C116.776 72.168 107.406 81.5333 107.406 93.041C107.406 104.549 116.776 113.914 128.291 113.914C139.805 113.914 149.176 104.549 149.176 93.041Z" fill="white"/>
<path d="M220.835 93.041C220.835 81.4721 211.464 72.168 199.95 72.168C188.435 72.168 179.064 81.5333 179.064 93.041C179.064 104.549 188.435 113.914 199.95 113.914C211.464 113.914 220.835 104.549 220.835 93.041Z" fill="white"/>
<path d="M292.493 93.041C292.493 81.4721 283.122 72.168 271.608 72.168C260.093 72.168 250.723 81.5333 250.723 93.041C250.723 104.549 260.093 113.914 271.608 113.914C283.122 113.914 292.493 104.549 292.493 93.041Z" fill="white"/>
<path d="M167.913 238.384C167.913 181.839 213.752 136 270.297 136H370.623C378.011 136 384 141.989 384 149.377V246.616C384 303.161 338.161 349 281.616 349H270.297C213.752 349 167.913 303.161 167.913 246.616V238.384Z" fill="url(#paint3_linear_416_2551)"/>
<path fill-rule="evenodd" clip-rule="evenodd" d="M277.006 178.646C277.006 182.693 273.71 185.924 269.699 186.462C261.421 187.572 253.47 190.56 246.472 195.236C237.433 201.275 230.389 209.859 226.229 219.901C222.07 229.944 220.981 240.995 223.102 251.656C225.222 262.317 230.457 272.11 238.143 279.796C245.829 287.483 255.622 292.717 266.284 294.838C276.945 296.958 287.995 295.87 298.038 291.71C308.08 287.55 316.664 280.506 322.703 271.468C327.379 264.469 330.367 256.519 331.478 248.24C332.016 244.229 335.246 240.934 339.294 240.934H361.278C365.325 240.934 368.636 244.22 368.313 248.254C367.067 263.791 361.872 278.797 353.168 291.824C343.103 306.887 328.797 318.628 312.059 325.561C295.322 332.494 276.904 334.308 259.135 330.774C241.367 327.239 225.045 318.515 212.235 305.705C199.424 292.894 190.7 276.573 187.166 258.804C183.631 241.035 185.445 222.618 192.378 205.88C199.311 189.142 211.052 174.836 226.116 164.771C239.142 156.067 254.148 150.872 269.685 149.627C273.719 149.303 277.006 152.615 277.006 156.662V178.646Z" fill="url(#paint4_linear_416_2551)"/>
<path fill-rule="evenodd" clip-rule="evenodd" d="M331.983 185.959H308.571C304.53 185.959 301.254 182.683 301.254 178.642V156.693C301.254 152.653 304.53 149.377 308.571 149.377H361.248C365.289 149.377 368.565 152.653 368.565 156.693V209.371C368.565 213.412 365.289 216.687 361.248 216.687H339.299C335.259 216.687 331.983 213.412 331.983 209.371V185.959Z" fill="url(#paint5_linear_416_2551)"/>
<defs>
<linearGradient id="paint0_linear_416_2551" x1="26.7003" y1="441.138" x2="401.741" y2="65.8798" gradientUnits="userSpaceOnUse">
<stop stop-color="white"/>
<stop offset="1" stop-color="#61A5AC"/>
</linearGradient>
<linearGradient id="paint1_linear_416_2551" x1="327.514" y1="327.419" x2="503.303" y2="151.614" gradientUnits="userSpaceOnUse">
<stop stop-color="#61A5AC"/>
<stop offset="1" stop-color="#00577C"/>
</linearGradient>
<linearGradient id="paint2_linear_416_2551" x1="96.0753" y1="198.998" x2="367.302" y2="-72.4472" gradientUnits="userSpaceOnUse">
<stop stop-color="#00577C"/>
<stop offset="1" stop-color="#00697E"/>
</linearGradient>
<linearGradient id="paint3_linear_416_2551" x1="179.545" y1="330.457" x2="461.324" y2="86.386" gradientUnits="userSpaceOnUse">
<stop stop-color="white"/>
<stop offset="1" stop-color="#61A5AC"/>
</linearGradient>
<linearGradient id="paint4_linear_416_2551" x1="210.418" y1="298.913" x2="411.406" y2="127.306" gradientUnits="userSpaceOnUse">
<stop stop-color="#00577C"/>
<stop offset="1" stop-color="#00697E"/>
</linearGradient>
<linearGradient id="paint5_linear_416_2551" x1="310.424" y1="204.321" x2="366.072" y2="156.813" gradientUnits="userSpaceOnUse">
<stop stop-color="#61A5AC"/>
<stop offset="1" stop-color="#00577C"/>
</linearGradient>
</defs>
</svg>
