<svg width="538" height="509" viewBox="0 0 538 509" fill="none" xmlns="http://www.w3.org/2000/svg">
<path d="M336.632 239.323L371.644 406.31C372.157 408.776 372.219 411.228 371.873 413.58C370.67 422.149 364.189 429.445 355.219 431.327L63.9113 492.39C54.879 494.27 46.0037 490.141 41.487 482.716C40.267 480.721 39.3543 478.492 38.8502 476.071L3.85352 309.157C1.45951 297.732 8.80177 286.545 20.2485 284.146L311.556 223.084C322.988 220.689 334.199 227.937 336.632 239.323Z" fill="url(#paint0_linear_396_2519)"/>
<path opacity="0.5" d="M371.876 413.594C370.674 422.163 364.193 429.459 355.223 431.342L63.9148 492.404C54.8825 494.284 46.0072 490.155 41.4905 482.73L196.504 361.172L371.891 413.591L371.876 413.594Z" fill="#A4CCD0"/>
<path opacity="0.8" d="M336.632 239.323L197.299 388.258L5.63383 317.706L3.85406 309.157C1.44522 297.735 8.78748 286.548 20.2342 284.149L311.542 223.087C322.974 220.692 334.185 227.94 336.618 239.326L336.632 239.323Z" fill="#CDE2E6"/>
<path d="M177.554 361.204C178.897 355.764 181.191 352.066 186.272 351.871C193.917 351.574 196.694 355.848 198.095 360.717C199.992 367.301 193.109 369.92 188.079 370.582C180.861 371.515 176.352 366.137 177.554 361.204Z" fill="white"/>
<path d="M325.963 157.55L302.408 272.429C302.059 274.121 301.421 275.691 300.571 277.076C297.469 282.148 291.395 284.984 285.215 283.707L84.8012 242.595C78.5903 241.313 74.125 236.285 73.2929 230.369C73.0727 228.778 73.1028 227.114 73.446 225.452L96.991 110.618C98.6143 102.758 106.29 97.7093 114.173 99.3219L314.583 140.449C322.448 142.073 327.538 149.696 325.963 157.55Z" fill="#247791"/>
<path d="M300.556 277.073C297.454 282.146 291.381 284.981 285.2 283.705L84.7867 242.593C78.5758 241.31 74.1105 236.283 73.2784 230.366L204.264 196.073L300.556 277.073Z" fill="#106786"/>
<path d="M325.963 157.551L197.378 213.398L95.7914 116.506L97.0035 110.637C98.6118 102.774 106.302 97.7282 114.171 99.3377L314.584 140.449C322.449 142.074 327.539 149.697 325.963 157.551Z" fill="#3A889B"/>
<path d="M192.325 190.937C194.652 187.874 197.121 186.167 200.372 187.432C205.264 189.332 205.85 192.794 205.419 196.248C204.815 200.916 199.764 200.7 196.406 199.725C191.596 198.342 190.215 193.717 192.325 190.937Z" fill="white"/>
<path opacity="0.6" d="M508.717 207.598L508.922 354.32C508.922 356.477 508.541 358.56 507.839 360.483C505.321 367.477 498.589 372.489 490.7 372.504L234.738 372.853C226.806 372.853 220.058 367.812 217.556 360.775C216.883 358.881 216.502 356.841 216.502 354.714L216.297 208.05C216.297 198.011 224.435 189.881 234.489 189.866L490.452 189.517C500.492 189.517 508.658 197.574 508.717 207.584V207.598Z" fill="#005D7D"/>
<path d="M514.243 212.347L514.448 359.069C514.448 361.225 514.067 363.309 513.365 365.232C510.847 372.226 504.115 377.238 496.226 377.252L240.264 377.602C232.331 377.602 225.584 372.561 223.082 365.523C222.408 363.629 222.028 361.589 222.028 359.462L221.823 212.798C221.823 202.76 229.96 194.629 240.015 194.615L495.977 194.265C506.017 194.265 514.184 202.322 514.243 212.332V212.347Z" fill="#005D7D"/>
<path d="M513.378 365.232C510.861 372.225 504.129 377.238 496.24 377.252L240.278 377.602C232.345 377.602 225.598 372.561 223.095 365.523L374.911 290.355L513.378 365.232Z" fill="#005A7C"/>
<path d="M514.243 212.347L370.828 313.318L221.837 220.317V212.813C221.808 202.774 229.96 194.644 240.015 194.629L495.977 194.28C506.017 194.28 514.184 202.337 514.243 212.347Z" fill="#06748E"/>
<path d="M358.959 287.078C361.037 282.736 363.628 280.026 367.931 280.754C374.414 281.847 376.01 285.927 376.332 290.269C376.771 296.14 370.521 297.146 366.16 296.811C359.925 296.33 357.057 291.012 358.945 287.078H358.959Z" fill="white"/>
<g opacity="0.7">
<path d="M103.894 61.0928L0.119753 78.3617L68.9991 27.9791L72.4924 43.7028L97.7292 48.0737L103.894 61.0928Z" fill="#1A6F8B"/>
<path d="M0.118991 78.3609L86.4935 30.2277L171.127 24.3379L0.118991 78.3609Z" fill="#428E9E"/>
<path d="M68.9993 27.9793L0.120002 78.3619L53.4593 0.543963L68.9993 27.9793Z" fill="#428E9E"/>
</g>
<g opacity="0.7">
<path d="M392.032 125.251L470.546 131.301L415.843 95.9649L414.281 108.878L395.761 114.3L392.032 125.251Z" fill="#ACD0D5"/>
<path d="M470.547 131.302L402.952 99.0837L339.467 100.742L470.547 131.302Z" fill="#D5E7EA"/>
<path d="M415.844 95.9655L470.547 131.301L425.598 72.7016L415.844 95.9655Z" fill="#D5E7EA"/>
</g>
<defs>
<linearGradient id="paint0_linear_396_2519" x1="105.509" y1="495.026" x2="61.6964" y2="277.539" gradientUnits="userSpaceOnUse">
<stop stop-color="white"/>
<stop offset="1" stop-color="#61A5AC"/>
</linearGradient>
</defs>
</svg>
