<svg width="1035" height="924" viewBox="0 0 1035 924" fill="none" xmlns="http://www.w3.org/2000/svg">
<g opacity="0.6">
<g filter="url(#filter0_f_163_1900)">
<ellipse cx="777.734" cy="276.066" rx="219.839" ry="148.481" fill="#01839E"/>
</g>
</g>
<g opacity="0.5">
<g filter="url(#filter1_f_163_1900)">
<ellipse cx="542.146" cy="579.42" rx="204.742" ry="130.392" fill="#0A5F6B"/>
</g>
</g>
<g opacity="0.5">
<g filter="url(#filter2_f_163_1900)">
<ellipse cx="544.587" cy="388.821" rx="107.141" ry="94.515" fill="url(#paint0_linear_163_1900)"/>
</g>
</g>
<g opacity="0.35">
<g filter="url(#filter3_f_163_1900)">
<ellipse cx="514.39" cy="466.107" rx="299.694" ry="210.047" fill="#9C70FA"/>
</g>
</g>
<g opacity="0.35" clip-path="url(#clip0_163_1900)">
<path d="M819.789 371.818V402H850.113V371.818H819.789Z" fill="white"/>
<path opacity="0.5" d="M819.789 333.749V363.931H850.113V333.749H819.789Z" fill="white"/>
<path d="M857.715 333.749V363.931H888.039V333.749H857.715Z" fill="white"/>
</g>
<g opacity="0.4" clip-path="url(#clip1_163_1900)">
<path d="M663.936 182.201L663.936 160.578L642.211 160.578L642.211 182.201L663.936 182.201Z" fill="white"/>
<path opacity="0.5" d="M663.936 209.473L663.936 187.851L642.211 187.851L642.211 209.473L663.936 209.473Z" fill="white"/>
<path d="M636.765 209.473L636.765 187.851L615.04 187.851L615.04 209.473L636.765 209.473Z" fill="white"/>
</g>
<g opacity="0.4">
<circle cx="698.503" cy="194.782" r="3.70974" fill="white"/>
<circle cx="698.503" cy="217.041" r="3.70974" fill="white"/>
<circle cx="698.503" cy="239.299" r="3.70974" fill="white"/>
<circle cx="698.503" cy="261.558" r="3.70974" fill="white"/>
<circle cx="698.503" cy="283.816" r="3.70974" fill="white"/>
<circle cx="698.503" cy="306.075" r="3.70974" fill="white"/>
<circle cx="720.76" cy="194.782" r="3.70974" fill="white"/>
<circle cx="720.76" cy="217.041" r="3.70974" fill="white"/>
<circle cx="720.76" cy="239.299" r="3.70974" fill="white"/>
<circle cx="720.76" cy="261.558" r="3.70974" fill="white"/>
<circle cx="720.76" cy="283.816" r="3.70974" fill="white"/>
<circle cx="720.76" cy="306.075" r="3.70974" fill="white"/>
<circle cx="743.018" cy="194.782" r="3.70974" fill="white"/>
<circle cx="743.018" cy="217.041" r="3.70974" fill="white"/>
<circle cx="743.018" cy="239.299" r="3.70974" fill="white"/>
<circle cx="743.018" cy="261.558" r="3.70974" fill="white"/>
<circle cx="743.018" cy="283.816" r="3.70974" fill="white"/>
<circle cx="743.018" cy="306.075" r="3.70974" fill="white"/>
<circle cx="765.276" cy="194.782" r="3.70974" fill="white"/>
<circle cx="765.276" cy="217.041" r="3.70974" fill="white"/>
<circle cx="765.276" cy="239.299" r="3.70974" fill="white"/>
<circle cx="765.276" cy="261.558" r="3.70974" fill="white"/>
<circle cx="765.276" cy="283.816" r="3.70974" fill="white"/>
<circle cx="765.276" cy="306.075" r="3.70974" fill="white"/>
<circle cx="787.536" cy="194.782" r="3.70974" fill="white"/>
<circle cx="787.536" cy="217.041" r="3.70974" fill="white"/>
<circle cx="787.536" cy="239.299" r="3.70974" fill="white"/>
<circle cx="787.536" cy="261.558" r="3.70974" fill="white"/>
<circle cx="787.536" cy="283.816" r="3.70974" fill="white"/>
<circle cx="787.536" cy="306.075" r="3.70974" fill="white"/>
<circle cx="809.8" cy="194.782" r="3.70974" fill="white"/>
<circle cx="809.8" cy="217.041" r="3.70974" fill="white"/>
<circle cx="809.8" cy="239.299" r="3.70974" fill="white"/>
<circle cx="809.8" cy="261.558" r="3.70974" fill="white"/>
<circle cx="809.8" cy="283.816" r="3.70974" fill="white"/>
<circle cx="809.8" cy="306.075" r="3.70974" fill="white"/>
<circle cx="832.053" cy="239.299" r="3.70974" fill="white"/>
<circle cx="832.053" cy="261.558" r="3.70974" fill="white"/>
<circle cx="832.053" cy="283.816" r="3.70974" fill="white"/>
<circle cx="832.053" cy="306.075" r="3.70974" fill="white"/>
<circle cx="832.052" cy="217.041" r="3.70974" fill="white"/>
<circle opacity="0.3" cx="854.315" cy="239.299" r="3.70974" fill="white"/>
<circle opacity="0.3" cx="854.315" cy="261.558" r="3.70974" fill="white"/>
<circle cx="854.315" cy="283.816" r="3.70974" fill="white"/>
<circle cx="854.315" cy="306.075" r="3.70974" fill="white"/>
</g>
<g opacity="0.4">
<circle cx="631.637" cy="239.299" r="3.70974" fill="white"/>
<circle cx="631.637" cy="261.558" r="3.70974" fill="white"/>
<circle opacity="0.3" cx="631.637" cy="283.816" r="3.70974" fill="white"/>
<circle opacity="0.3" cx="631.637" cy="306.075" r="3.70974" fill="white"/>
<circle cx="653.897" cy="239.299" r="3.70974" fill="white"/>
<circle cx="653.897" cy="261.558" r="3.70974" fill="white"/>
<circle cx="653.897" cy="283.816" r="3.70974" fill="white"/>
<circle cx="653.897" cy="306.075" r="3.70974" fill="white"/>
<circle cx="653.897" cy="328.333" r="3.70974" fill="white"/>
<circle cx="676.157" cy="239.299" r="3.70974" fill="white"/>
<circle cx="676.157" cy="261.558" r="3.70974" fill="white"/>
<circle cx="676.157" cy="283.816" r="3.70974" fill="white"/>
<circle cx="676.157" cy="306.075" r="3.70974" fill="white"/>
<circle cx="676.157" cy="328.333" r="3.70974" fill="white"/>
<circle cx="676.157" cy="350.592" r="3.70974" fill="white"/>
<circle cx="698.417" cy="239.299" r="3.70974" fill="white"/>
<circle cx="698.417" cy="261.558" r="3.70974" fill="white"/>
<circle cx="698.417" cy="283.816" r="3.70974" fill="white"/>
<circle cx="698.417" cy="306.075" r="3.70974" fill="white"/>
<circle cx="698.417" cy="328.333" r="3.70974" fill="white"/>
<circle cx="698.417" cy="350.592" r="3.70974" fill="white"/>
<circle cx="720.673" cy="239.299" r="3.70974" fill="white"/>
<circle cx="720.673" cy="261.558" r="3.70974" fill="white"/>
<circle cx="720.673" cy="283.816" r="3.70974" fill="white"/>
<circle cx="720.673" cy="306.075" r="3.70974" fill="white"/>
<circle cx="720.673" cy="328.333" r="3.70974" fill="white"/>
<circle cx="720.673" cy="350.592" r="3.70974" fill="white"/>
<circle cx="742.934" cy="239.299" r="3.70974" fill="white"/>
<circle cx="742.934" cy="261.558" r="3.70974" fill="white"/>
<circle cx="742.934" cy="283.816" r="3.70974" fill="white"/>
<circle cx="742.934" cy="306.075" r="3.70974" fill="white"/>
<circle cx="742.934" cy="328.333" r="3.70974" fill="white"/>
<circle cx="742.934" cy="350.592" r="3.70974" fill="white"/>
<circle cx="765.19" cy="239.299" r="3.70974" fill="white"/>
<circle cx="765.19" cy="261.558" r="3.70974" fill="white"/>
<circle cx="765.19" cy="283.816" r="3.70974" fill="white"/>
<circle cx="765.19" cy="306.075" r="3.70974" fill="white"/>
<circle cx="765.19" cy="328.333" r="3.70974" fill="white"/>
<circle cx="765.19" cy="350.592" r="3.70974" fill="white"/>
<circle cx="787.45" cy="239.299" r="3.70974" fill="white"/>
<circle cx="787.45" cy="261.558" r="3.70974" fill="white"/>
<circle cx="787.45" cy="283.816" r="3.70974" fill="white"/>
<circle cx="787.45" cy="306.075" r="3.70974" fill="white"/>
<circle cx="787.45" cy="328.333" r="3.70974" fill="white"/>
<circle cx="787.45" cy="350.592" r="3.70974" fill="white"/>
<circle opacity="0.2" cx="720.671" cy="372.71" r="3.70974" fill="white"/>
<circle opacity="0.5" cx="743.727" cy="372.71" r="3.70974" fill="white"/>
<circle opacity="0.5" cx="765.983" cy="372.71" r="3.70974" fill="white"/>
<circle opacity="0.5" cx="788.243" cy="372.71" r="3.70974" fill="white"/>
</g>
<circle cx="698.21" cy="239.054" r="3.73699" fill="white"/>
<circle cx="698.21" cy="239.054" r="6.23699" stroke="white" stroke-opacity="0.05" stroke-width="5"/>
<circle cx="698.21" cy="261.476" r="3.73699" fill="white"/>
<circle cx="698.21" cy="261.476" r="6.23699" stroke="white" stroke-opacity="0.05" stroke-width="5"/>
<circle cx="698.21" cy="283.898" r="3.73699" fill="white"/>
<circle cx="698.21" cy="283.898" r="6.23699" stroke="white" stroke-opacity="0.05" stroke-width="5"/>
<circle cx="698.21" cy="306.32" r="3.73699" fill="white"/>
<circle cx="698.21" cy="306.32" r="6.23699" stroke="white" stroke-opacity="0.05" stroke-width="5"/>
<circle cx="720.628" cy="239.054" r="3.73699" fill="white"/>
<circle cx="720.628" cy="239.054" r="6.23699" stroke="white" stroke-opacity="0.05" stroke-width="5"/>
<circle cx="720.628" cy="261.476" r="3.73699" fill="white"/>
<circle cx="720.628" cy="261.476" r="6.23699" stroke="white" stroke-opacity="0.05" stroke-width="5"/>
<circle cx="720.628" cy="283.898" r="3.73699" fill="white"/>
<circle cx="720.628" cy="283.898" r="6.23699" stroke="white" stroke-opacity="0.05" stroke-width="5"/>
<circle cx="720.628" cy="306.32" r="3.73699" fill="white"/>
<circle cx="720.628" cy="306.32" r="6.23699" stroke="white" stroke-opacity="0.05" stroke-width="5"/>
<circle cx="743.051" cy="239.054" r="3.73699" fill="white"/>
<circle cx="743.051" cy="239.054" r="6.23699" stroke="white" stroke-opacity="0.05" stroke-width="5"/>
<circle cx="743.051" cy="261.476" r="3.73699" fill="white"/>
<circle cx="743.051" cy="261.476" r="6.23699" stroke="white" stroke-opacity="0.05" stroke-width="5"/>
<circle cx="743.051" cy="283.898" r="3.73699" fill="white"/>
<circle cx="743.051" cy="283.898" r="6.23699" stroke="white" stroke-opacity="0.05" stroke-width="5"/>
<circle cx="743.051" cy="306.32" r="3.73699" fill="white"/>
<circle cx="743.051" cy="306.32" r="6.23699" stroke="white" stroke-opacity="0.05" stroke-width="5"/>
<circle cx="765.473" cy="239.054" r="3.73699" fill="white"/>
<circle cx="765.473" cy="239.054" r="6.23699" stroke="white" stroke-opacity="0.05" stroke-width="5"/>
<circle cx="765.473" cy="261.476" r="3.73699" fill="white"/>
<circle cx="765.473" cy="261.476" r="6.23699" stroke="white" stroke-opacity="0.05" stroke-width="5"/>
<circle cx="765.473" cy="283.898" r="3.73699" fill="white"/>
<circle cx="765.473" cy="283.898" r="6.23699" stroke="white" stroke-opacity="0.05" stroke-width="5"/>
<circle cx="765.473" cy="306.32" r="3.73699" fill="white"/>
<circle cx="765.473" cy="306.32" r="6.23699" stroke="white" stroke-opacity="0.05" stroke-width="5"/>
<circle cx="787.897" cy="239.054" r="3.73699" fill="white"/>
<circle cx="787.897" cy="239.054" r="6.23699" stroke="white" stroke-opacity="0.05" stroke-width="5"/>
<circle cx="787.897" cy="261.476" r="3.73699" fill="white"/>
<circle cx="787.897" cy="261.476" r="6.23699" stroke="white" stroke-opacity="0.05" stroke-width="5"/>
<circle cx="787.897" cy="283.898" r="3.73699" fill="white"/>
<circle cx="787.897" cy="283.898" r="6.23699" stroke="white" stroke-opacity="0.05" stroke-width="5"/>
<circle cx="787.897" cy="306.32" r="3.73699" fill="white"/>
<circle cx="787.897" cy="306.32" r="6.23699" stroke="white" stroke-opacity="0.05" stroke-width="5"/>
<defs>
<filter id="filter0_f_163_1900" x="343.895" y="-86.4149" width="867.678" height="724.961" filterUnits="userSpaceOnUse" color-interpolation-filters="sRGB">
<feFlood flood-opacity="0" result="BackgroundImageFix"/>
<feBlend mode="normal" in="SourceGraphic" in2="BackgroundImageFix" result="shape"/>
<feGaussianBlur stdDeviation="107" result="effect1_foregroundBlur_163_1900"/>
</filter>
<filter id="filter1_f_163_1900" x="123.404" y="235.028" width="837.484" height="688.784" filterUnits="userSpaceOnUse" color-interpolation-filters="sRGB">
<feFlood flood-opacity="0" result="BackgroundImageFix"/>
<feBlend mode="normal" in="SourceGraphic" in2="BackgroundImageFix" result="shape"/>
<feGaussianBlur stdDeviation="107" result="effect1_foregroundBlur_163_1900"/>
</filter>
<filter id="filter2_f_163_1900" x="223.445" y="80.3058" width="642.283" height="617.03" filterUnits="userSpaceOnUse" color-interpolation-filters="sRGB">
<feFlood flood-opacity="0" result="BackgroundImageFix"/>
<feBlend mode="normal" in="SourceGraphic" in2="BackgroundImageFix" result="shape"/>
<feGaussianBlur stdDeviation="107" result="effect1_foregroundBlur_163_1900"/>
</filter>
<filter id="filter3_f_163_1900" x="0.695312" y="42.0601" width="1027.39" height="848.094" filterUnits="userSpaceOnUse" color-interpolation-filters="sRGB">
<feFlood flood-opacity="0" result="BackgroundImageFix"/>
<feBlend mode="normal" in="SourceGraphic" in2="BackgroundImageFix" result="shape"/>
<feGaussianBlur stdDeviation="107" result="effect1_foregroundBlur_163_1900"/>
</filter>
<linearGradient id="paint0_linear_163_1900" x1="512.237" y1="483.335" x2="545.813" y2="255.116" gradientUnits="userSpaceOnUse">
<stop stop-color="#0A5F6B"/>
<stop offset="1" stop-color="#00BFE9"/>
</linearGradient>
<clipPath id="clip0_163_1900">
<rect width="68.25" height="68.25" fill="white" transform="translate(819.789 333.75)"/>
</clipPath>
<clipPath id="clip1_163_1900">
<rect width="48.8955" height="48.8955" fill="white" transform="translate(663.936 209.473) rotate(-180)"/>
</clipPath>
</defs>
</svg>
