<?xml version="1.0" encoding="utf-8"?>
<!-- Generator: Adobe Illustrator 22.0.1, SVG Export Plug-In . SVG Version: 6.00 Build 0)  -->
<svg version="1.1" xmlns="http://www.w3.org/2000/svg" xmlns:xlink="http://www.w3.org/1999/xlink" x="0px" y="0px"
	 viewBox="0 0 1200 1200" style="enable-background:new 0 0 1200 1200;" xml:space="preserve">
<style type="text/css">
	.st0{display:none;}
	.st1{fill:#E80517;}
	.st2{fill:#D8051E;}
</style>
<g id="Layer_3" class="st0">
</g>
<g id="Layer_2">
	<g id="Layer_4">
	</g>
	<g id="Layer_5">
	</g>
	<path class="st1" d="M974.2,775.8h-0.1c65.3-79.7,104.5-181.6,104.5-292.7C1078.6,227.9,871.7,21,616.4,21S154.2,227.9,154.2,483.2
		c0,111.1,39.2,213,104.5,292.7h-0.1l2.7,3.1c4.4,5.2,8.8,10.4,13.4,15.4L616.4,1187l341.7-392.7c4.6-5,9-10.2,13.4-15.4
		L974.2,775.8z M616.4,199.9c143.9,0,260.5,116.6,260.5,260.5S760.3,720.9,616.4,720.9S355.9,604.3,355.9,460.4
		S472.5,199.9,616.4,199.9z"/>
	<path class="st2" d="M1078.6,483.2C1078.6,227.9,871.7,21,616.4,21v178.9c143.9,0,260.5,116.6,260.5,260.5S760.3,720.9,616.4,720.9
		V1187l341.7-392.7c4.6-5,9-10.2,13.4-15.4l2.7-3.1h-0.1C1039.4,696.1,1078.6,594.2,1078.6,483.2z"/>
</g>
</svg>
